# xmcd
#
# Track frame offsets: 
#        150
#        15748
#        30278
#        42125
#        57123
#        68498
#        81723
#        94733
#        115540
#        127398
#        140283
#        158035
#        172248
#        185963
#        198938
#        211733
#
# Disc length: 3086 seconds
#
# Revision: 4
# Processed by: cddbd v1.5.2PL0 Copyright (c) Steve Scherf et al.
# Submitted via: ExactAudioCopy v1.0b4
#
DISCID=dc0c0c10
DTITLE=Frank Sinatra - New York New York
DYEAR=1991
DGENRE=Blues
TTITLE0=Theme from New York, New York
TTITLE1=I Get a Kick Out of You
TTITLE2=Something Stupid
TTITLE3=Moon River
TTITLE4=What Now My Love
TTITLE5=Summer Wind
TTITLE6=Mrs. Robinson
TTITLE7=My Way
TTITLE8=Strangers in The Night
TTITLE9=For Once in My Life
TTITLE10=Yesterday
TTITLE11=That's life
TTITLE12=The Girl from Ipanema
TTITLE13=The lady is a Tramp
TTITLE14=Bad, bad Leroy Brown
TTITLE15=Ol'man River
EXTD=ID3G:   0
EXTT0=
EXTT1=
EXTT2=
EXTT3=
EXTT4=
EXTT5=
EXTT6=
EXTT7=
EXTT8=
EXTT9=
EXTT10=
EXTT11=
EXTT12=
EXTT13=
EXTT14=
EXTT15=
PLAYORDER=
